#!OML:ASF H:\Dans Jumps\Project 1\Capture day 1\Session 1\subject.ASF
:FULLY-SPECIFIED
:DEGREES
627
root 0.278739 17.7982 -1.86606 6.71282 -1.35299 -1.22181
lowerback -2.96569 -0.665934 -0.290445
upperback 2.97118 -0.954289 1.82589
thorax 4.76872 -0.518663 1.98405
lowerneck -11.1257 1.03656 -1.71628
upperneck 38.6915 2.21069 -0.518901
head 15.438 0.602096 0.434976
rclavicle -1.20265e-014 4.37326e-015
rhumerus -25.291 -15.3717 -81.2655
rradius 22.9302
rwrist 33.5212
rhand -20.5919 -26.4931
rfingers 7.12502
rthumb 5.76841 -56.3946
lclavicle -1.20265e-014 4.37326e-015
lhumerus -21.3981 -6.89542 91.3319
lradius 17.5071
lwrist 4.75013
lhand -26.4924 -5.99067
lfingers 7.12502
lthumb 0.0702078 23.9891
rfemur -13.9289 -2.48774 19.4161
rtibia 20.446
rfoot -11.8239 -2.05712
rtoes 15.0229
lfemur -11.7326 6.97165 -17.6516
ltibia 16.2333
lfoot -9.06505 2.5691
ltoes 4.85017
628
root 0.27911 17.798 -1.86569 6.70442 -1.34321 -1.22156
lowerback -2.9625 -0.665898 -0.290774
upperback 2.97031 -0.954157 1.82529
thorax 4.76599 -0.518578 1.98365
lowerneck -11.1243 1.03745 -1.70951
upperneck 38.699 2.21341 -0.526487
head 15.4416 0.60316 0.431005
rclavicle 4.02539e-015 -5.1684e-015
rhumerus -25.2783 -15.3567 -81.2717
rradius 22.9278
rwrist 33.5224
rhand -20.598 -26.48
rfingers 7.12502
rthumb 5.76248 -56.3816
lclavicle 4.02539e-015 -5.1684e-015
lhumerus -21.4019 -6.89921 91.3264
lradius 17.4881
lwrist 4.73625
lhand -26.4824 -5.99379
lfingers 7.12502
lthumb 0.0798394 23.9859
rfemur -13.918 -2.49243 19.4144
rtibia 20.4481
rfoot -11.8277 -2.06349
rtoes 15.0165
lfemur -11.7266 6.97139 -17.6523
ltibia 16.2379
lfoot -9.06747 2.56174
ltoes 4.84104
629
root 0.27949 17.7978 -1.86531 6.69693 -1.33363 -1.22114
lowerback -2.96055 -0.666129 -0.290937
upperback 2.96926 -0.954394 1.82457
thorax 4.76377 -0.51867 1.98299
lowerneck -11.1205 1.03902 -1.7065
upperneck 38.7051 2.21782 -0.533273
head 15.444 0.604529 0.428284
rclavicle 6.65929e-015 6.36111e-015
rhumerus -25.2649 -15.3452 -81.2775
rradius 22.9229
rwrist 33.5252
rhand -20.6085 -26.4621
rfingers 7.12502
rthumb 5.75231 -56.364
lclavicle 6.65929e-015 6.36111e-015
lhumerus -21.4077 -6.90723 91.3219
lradius 17.4699
lwrist 4.72492
lhand -26.4695 -5.99585
lfingers 7.12502
lthumb 0.0922656 23.9839
rfemur -13.9083 -2.4988 19.4123
rtibia 20.4501
rfoot -11.8318 -2.06666
rtoes 15.0246
lfemur -11.721 6.97191 -17.6535
ltibia 16.2417
lfoot -9.07097 2.55291
ltoes 4.83828
630
root 0.279909 17.7977 -1.86488 6.68985 -1.32423 -1.2183
lowerback -2.95865 -0.665951 -0.292292
upperback 2.96737 -0.95395 1.82253
thorax 4.76069 -0.51843 1.9817
lowerneck -11.1159 1.04075 -1.70409
upperneck 38.7118 2.22259 -0.539837
head 15.4464 0.606003 0.425818
rclavicle 6.11263e-015 -4.77083e-015
rhumerus -25.2538 -15.334 -81.2834
rradius 22.9185
rwrist 33.5249
rhand -20.6186 -26.4419
rfingers 7.12502
rthumb 5.74255 -56.3441
lclavicle 6.11263e-015 -4.77083e-015
lhumerus -21.4183 -6.9202 91.3183
lradius 17.4551
lwrist 4.71113
lhand -26.4558 -5.9919
lfingers 7.12502
lthumb 0.105531 23.9878
rfemur -13.8992 -2.50715 19.4074
rtibia 20.4522
rfoot -11.8352 -2.06821
rtoes 15.0339
lfemur -11.7149 6.97284 -17.6577
ltibia 16.2452
lfoot -9.07568 2.54325
ltoes 4.84176
631
root 0.28027 17.7975 -1.86456 6.68494 -1.31526 -1.21938
lowerback -2.95779 -0.665415 -0.290002
upperback 2.9653 -0.953258 1.82133
thorax 4.75794 -0.517957 1.97922
lowerneck -11.1129 1.04388 -1.69836
upperneck 38.7185 2.23001 -0.549991
head 15.4493 0.608577 0.421665
rclavicle 1.23246e-014 -7.95139e-016
rhumerus -25.2431 -15.3208 -81.2911
rradius 22.9169
rwrist 33.5182
rhand -20.6301 -26.4219
rfingers 7.12502
rthumb 5.7315 -56.3244
lclavicle 1.23246e-014 -7.95139e-016
lhumerus -21.4308 -6.93661 91.3151
lradius 17.4427
lwrist 4.695
lhand -26.4418 -5.97327
lfingers 7.12502
lthumb 0.119063 24.0064
rfemur -13.8929 -2.51202 19.4071
rtibia 20.4538
rfoot -11.8373 -2.0716
rtoes 15.0451
lfemur -11.712 6.97355 -17.6574
ltibia 16.2493
lfoot -9.07996 2.53478
ltoes 4.84454
632
root 0.280598 17.7975 -1.86421 6.68161 -1.30665 -1.21875
lowerback -2.95956 -0.664371 -0.288833
upperback 2.9636 -0.951799 1.81887
thorax 4.75705 -0.517128 1.97611
lowerneck -11.1144 1.04692 -1.69029
upperneck 38.7269 2.23696 -0.56052
head 15.4542 0.611199 0.416911
rclavicle 5.11871e-015 -1.74931e-014
rhumerus -25.2336 -15.3075 -81.3001
rradius 22.9188
rwrist 33.5077
rhand -20.6394 -26.3998
rfingers 7.12502
rthumb 5.72249 -56.3025
lclavicle 5.11871e-015 -1.74931e-014
lhumerus -21.4438 -6.94952 91.3101
lradius 17.4331
lwrist 4.67149
lhand -26.4233 -5.94059
lfingers 7.12502
lthumb 0.136865 24.0391
rfemur -13.8884 -2.51691 19.4051
rtibia 20.4557
rfoot -11.8392 -2.07473
rtoes 15.051
lfemur -11.7105 6.9739 -17.6589
ltibia 16.2539
lfoot -9.08493 2.52704
ltoes 4.85391
633
root 0.280877 17.7973 -1.86391 6.67831 -1.29898 -1.21863
lowerback -2.96175 -0.663143 -0.2877
upperback 2.96226 -0.950119 1.81679
thorax 4.75677 -0.516203 1.97342
lowerneck -11.1165 1.04979 -1.68348
upperneck 38.7333 2.24348 -0.569733
head 15.4582 0.613655 0.412869
rclavicle -5.56597e-015 7.95139e-016
rhumerus -25.2258 -15.2894 -81.3101
rradius 22.9247
rwrist 33.4937
rhand -20.6495 -26.3824
rfingers 7.12502
rthumb 5.71274 -56.2854
lclavicle -5.56597e-015 7.95139e-016
lhumerus -21.4569 -6.96302 91.3061
lradius 17.4219
lwrist 4.64779
lhand -26.4162 -5.90798
lfingers 7.12502
lthumb 0.143776 24.0717
rfemur -13.8841 -2.51941 19.4041
rtibia 20.4582
rfoot -11.8408 -2.07997
rtoes 15.045
lfemur -11.7094 6.97315 -17.6594
ltibia 16.2594
lfoot -9.08994 2.52197
ltoes 4.85832
